<?xml version="1.0" encoding="UTF-8" standalone="no"?>
<!DOCTYPE svg PUBLIC "-//W3C//DTD SVG 1.1//EN" "http://www.w3.org/Graphics/SVG/1.1/DTD/svg11.dtd">
<!-- Generated by Microsoft Visio, SVG Export radium.svg Page-1 -->
<svg xmlns="http://www.w3.org/2000/svg" xmlns:xlink="http://www.w3.org/1999/xlink" xmlns:ev="http://www.w3.org/2001/xml-events"
		width="0.876558in" height="0.728639in" viewBox="0 0 63.1122 52.462" xml:space="preserve" color-interpolation-filters="sRGB"
		class="st2">
	<title>Radium</title>

	<style type="text/css">
	<![CDATA[
		.st1 {fill:#7f7f7f;stroke:#7f7f7f;stroke-linecap:round;stroke-linejoin:round;stroke-width:0.75}
		.st2 {fill:none;fill-rule:evenodd;font-size:12px;overflow:visible;stroke-linecap:square;stroke-miterlimit:3}
	]]>
	</style>

	<g>
		<title>Page-1</title>
		<g id="shape138-1" transform="translate(0.374997,-12.0578)">
			<title>Rounded Rectangle.138</title>
			<path d="M0.78 52.46 L61.58 52.46 a0.779515 0.779515 -180 0 0 0.779528 -0.779528 L62.36 47.4 a0.779515 0.779515 -180
						 0 0 -0.779528 -0.779528 L0.78 46.62 a0.779515 0.779515 -180 0 0 -0.779528 0.779528 L0 51.68 a0.779515 0.779515
						 -180 0 0 0.779528 0.779528 Z" class="st1"/>
		</g>
		<g id="shape139-3" transform="translate(20.2175,-23.7406)">
			<title>Rounded Rectangle.139</title>
			<path d="M0.46 52.46 L36.39 52.46 a0.460622 0.460622 -180 0 0 0.46063 -0.46063 L36.85 47.08 a0.460622 0.460622 -180 0
						 0 -0.46063 -0.46063 L0.46 46.62 a0.460622 0.460622 -180 0 0 -0.46063 0.46063 L0 52 a0.460622 0.460622 -180
						 0 0 0.46063 0.46063 Z" class="st1"/>
		</g>
		<g id="shape140-5" transform="translate(0.374997,-0.375)">
			<title>Rounded Rectangle.140</title>
			<path d="M0.46 52.46 L36.39 52.46 a0.460622 0.460622 -180 0 0 0.46063 -0.46063 L36.85 47.08 a0.460622 0.460622 -180 0
						 0 -0.46063 -0.46063 L0.46 46.62 a0.460622 0.460622 -180 0 0 -0.46063 0.46063 L0 52 a0.460622 0.460622 -180
						 0 0 0.46063 0.46063 Z" class="st1"/>
		</g>
		<g id="shape146-7" transform="translate(0.374997,-23.7406)">
			<title>Rounded Rectangle.146</title>
			<path d="M0.21 52.46 L16.8 52.46 a0.212595 0.212595 -180 0 0 0.212598 -0.212598 L17.01 46.83 a0.212595 0.212595 -180
						 0 0 -0.212598 -0.212598 L0.21 46.62 a0.212595 0.212595 -180 0 0 -0.212598 0.212598 L0 52.25 a0.212595 0.212595
						 -180 0 0 0.212598 0.212598 Z" class="st1"/>
		</g>
		<g id="group147-9" transform="translate(0.374997,-41.9937)">
			<title>Sheet.147</title>
			<g id="shape148-10" transform="translate(12.7559,104.58) rotate(180)">
				<title>Triangle</title>
				<path d="M8.5 52.46 L4.25 46.62 L0 52.46 L8.5 52.46 Z" class="st1"/>
			</g>
			<g id="shape149-12" transform="translate(1.19904E-014,-0.455568)">
				<title>Rounded Rectangle.52</title>
				<path d="M0.53 52.46 L41.74 52.46 a0.528324 0.528324 -180 0 0 0.528332 -0.528332 L42.27 43.35 a0.528324 0.528324
							 -180 0 0 -0.528332 -0.528332 L0.53 42.82 a0.528324 0.528324 -180 0 0 -0.528332 0.528332 L0 51.93 a0.528324
							 0.528324 -180 0 0 0.528332 0.528332 Z" class="st1"/>
			</g>
		</g>
	</g>
</svg>
